<mxfile host="app.diagrams.net" modified="2023-07-27T07:55:01.024Z" agent="Mozilla/5.0 (Macintosh; Intel Mac OS X 10_15_7) AppleWebKit/537.36 (KHTML, like Gecko) Chrome/115.0.0.0 Safari/537.36" version="21.6.3" etag="YX1Ud_a-OO-EkQ7l0peu" type="github">
  <diagram name="Page-1" id="LR4E88BNSvEjQ7euP4Tk">
    <mxGraphModel>
      <root>
        <mxCell id="0" />
        <mxCell id="1" parent="0" />
      </root>
    </mxGraphModel>
  </diagram>
</mxfile>
